<svg width="24" height="24" viewBox="0 0 24 24" fill="none" xmlns="http://www.w3.org/2000/svg">
<rect opacity="0.01" width="24" height="24" fill="white"/>
<path fill-rule="evenodd" clip-rule="evenodd" d="M21 12C21 7.032 16.977 3 12 3C7.032 3 3 7.032 3 12C3 16.977 7.032 21 12 21C16.977 21 21 16.977 21 12ZM11.01 8.112C11.01 7.734 11.316 7.437 11.685 7.437C12.054 7.437 12.36 7.734 12.36 8.112V12.27L15.564 14.178C15.888 14.376 15.987 14.79 15.798 15.105C15.672 15.321 15.447 15.438 15.222 15.438C15.096 15.438 14.979 15.402 14.871 15.339L11.343 13.233C11.136 13.107 11.01 12.891 11.01 12.657V8.112Z" fill="#181818"/>
</svg>
