<svg width="34" height="34" viewBox="0 0 34 34" fill="none" xmlns="http://www.w3.org/2000/svg">
<rect opacity="0.01" x="0.0294189" y="16.9999" width="24" height="24" transform="rotate(-45 0.0294189 16.9999)" fill="white"/>
<path fill-rule="evenodd" clip-rule="evenodd" d="M13.3047 11.3438C12.7628 10.8019 11.8846 10.8015 11.3432 11.3429C10.8018 11.8843 10.8022 12.7625 11.3441 13.3044L15.0386 16.9989L11.3423 20.6953C10.8009 21.2367 10.8013 22.1148 11.3431 22.6567C11.885 23.1986 12.7631 23.199 13.3046 22.6575L17.0009 18.9612L20.6955 22.6558C21.2374 23.1977 22.1155 23.198 22.6569 22.6566C23.1983 22.1152 23.198 21.2371 22.6561 20.6952L18.9615 17.0006L22.6576 13.3045C23.1991 12.763 23.1987 11.8849 22.6568 11.343C22.115 10.8011 21.2368 10.8008 20.6954 11.3422L16.9992 15.0383L13.3047 11.3438Z" fill="#181818"/>
</svg>
