<svg width="24" height="24" viewBox="0 0 24 24" fill="none" xmlns="http://www.w3.org/2000/svg">
<rect opacity="0.01" width="24" height="24" fill="white"/>
<path fill-rule="evenodd" clip-rule="evenodd" d="M3.04999 12.0368C3.04999 8.42738 3.66141 6.2595 4.96045 4.96045C6.2595 3.66141 8.42738 3.04999 12.0368 3.04999C15.6463 3.04999 17.8142 3.66141 19.1132 4.96045C20.4123 6.2595 21.0237 8.42738 21.0237 12.0368C21.0237 15.6463 20.4123 17.8142 19.1132 19.1132C17.8142 20.4123 15.6463 21.0237 12.0368 21.0237C8.42738 21.0237 6.2595 20.4123 4.96045 19.1132C3.66141 17.8142 3.04999 15.6463 3.04999 12.0368ZM12.0368 1.54999C8.34418 1.54999 5.64364 2.15594 3.89979 3.89979C2.15594 5.64364 1.54999 8.34418 1.54999 12.0368C1.54999 15.7295 2.15594 18.43 3.89979 20.1739C5.64364 21.9177 8.34418 22.5237 12.0368 22.5237C15.7295 22.5237 18.43 21.9177 20.1739 20.1739C21.9177 18.43 22.5237 15.7295 22.5237 12.0368C22.5237 8.34418 21.9177 5.64364 20.1739 3.89979C18.43 2.15594 15.7295 1.54999 12.0368 1.54999ZM12.0369 7.71262C12.4511 7.71262 12.7869 8.0484 12.7869 8.46262V11.2868H15.6147C16.0289 11.2868 16.3647 11.6226 16.3647 12.0368C16.3647 12.451 16.0289 12.7868 15.6147 12.7868H12.7869V15.611C12.7869 16.0253 12.4511 16.361 12.0369 16.361C11.6227 16.361 11.2869 16.0253 11.2869 15.611V12.7868H8.45886C8.04465 12.7868 7.70886 12.451 7.70886 12.0368C7.70886 11.6226 8.04465 11.2868 8.45886 11.2868H11.2869V8.46262C11.2869 8.0484 11.6227 7.71262 12.0369 7.71262Z" fill="#181818"/>
</svg>
