<svg width="24" height="24" viewBox="0 0 24 24" fill="none" xmlns="http://www.w3.org/2000/svg">
<rect opacity="0.01" width="24" height="24" fill="white"/>
<g clip-path="url(#clip0_1_2790)">
<path d="M11.9961 2.51416C7.56185 2.51416 5.63519 6.5294 5.63519 9.18368C5.63519 11.1675 5.9228 10.5837 4.82471 13.0037C3.48376 16.4523 8.87614 17.8618 11.9961 17.8618C15.1152 17.8618 20.5076 16.4523 19.1676 13.0037C18.0695 10.5837 18.3571 11.1675 18.3571 9.18368C18.3571 6.5294 16.4295 2.51416 11.9961 2.51416Z" fill="#F9D8D8"/>
<path fill-rule="evenodd" clip-rule="evenodd" d="M11.9961 1.76416C9.52145 1.76416 7.72163 2.89651 6.56018 4.3939C5.41704 5.86768 4.88519 7.69875 4.88519 9.18368C4.88519 9.60993 4.89814 9.92637 4.90797 10.1665L4.90806 10.1685C4.91004 10.2171 4.91191 10.2626 4.91349 10.3052C4.92316 10.5635 4.9212 10.6876 4.90134 10.8105C4.85617 11.0901 4.71315 11.4345 4.14174 12.6938C4.13604 12.7064 4.13069 12.7191 4.1257 12.7319C3.71259 13.7943 3.80469 14.7717 4.29558 15.6C4.764 16.3904 5.5515 16.9724 6.40277 17.3971C8.10509 18.2463 10.3557 18.6118 11.9961 18.6118C13.6361 18.6118 15.8865 18.2463 17.5888 17.3971C18.4401 16.9724 19.2276 16.3905 19.6962 15.6001C20.1871 14.7719 20.2795 13.7945 19.8667 12.7321C19.8617 12.7192 19.8563 12.7064 19.8506 12.6938C19.2792 11.4345 19.1362 11.0901 19.091 10.8105C19.0711 10.6876 19.0692 10.5635 19.0788 10.3052C19.0804 10.262 19.0823 10.2159 19.0844 10.1665C19.0942 9.92636 19.1071 9.60992 19.1071 9.18368C19.1071 7.69867 18.575 5.86761 17.4318 4.39386C16.2702 2.89654 14.4704 1.76416 11.9961 1.76416ZM6.38519 9.18368C6.38519 8.01433 6.81667 6.51064 7.74543 5.31323C8.65589 4.13943 10.0365 3.26416 11.9961 3.26416C13.9553 3.26416 15.3359 4.1394 16.2466 5.31327C17.1755 6.51071 17.6071 8.01441 17.6071 9.18368C17.6071 9.57679 17.5956 9.86077 17.5858 10.0998C17.5837 10.1515 17.5817 10.201 17.5799 10.2491C17.5699 10.515 17.5647 10.7681 17.6102 11.0497C17.6947 11.5728 17.9516 12.139 18.4656 13.2716L18.4756 13.2937C18.7242 13.9463 18.6443 14.433 18.4058 14.8352C18.1427 15.2791 17.6385 15.6961 16.9192 16.0549C15.4806 16.7726 13.4752 17.1118 11.9961 17.1118C10.5166 17.1118 8.511 16.7725 7.07237 16.0549C6.35316 15.6961 5.849 15.2791 5.58599 14.8353C5.34766 14.4331 5.26783 13.9465 5.51671 13.2938L5.52673 13.2717L5.52685 13.2714C6.04075 12.1389 6.29764 11.5727 6.38213 11.0497C6.42763 10.7681 6.42239 10.515 6.41245 10.2491C6.4108 10.205 6.40896 10.1597 6.40705 10.1127L6.40652 10.0998C6.39677 9.86076 6.38519 9.57678 6.38519 9.18368ZM10.2453 20.0125C9.96939 19.7036 9.49527 19.6769 9.18635 19.9528C8.87743 20.2287 8.85069 20.7029 9.12663 21.0118C10.7344 22.8117 13.2753 22.7879 14.8648 21.0124C15.1411 20.7038 15.1148 20.2297 14.8062 19.9534C14.4976 19.6771 14.0235 19.7033 13.7472 20.0119C12.7481 21.1279 11.2509 21.1383 10.2453 20.0125Z" fill="#E23E3E"/>
</g>
<defs>
<clipPath id="clip0_1_2790">
<rect width="16.2629" height="20.5888" fill="white" transform="translate(3.86456 1.76416)"/>
</clipPath>
</defs>
</svg>
