<svg width="24" height="24" viewBox="0 0 24 24" fill="none" xmlns="http://www.w3.org/2000/svg">
<rect opacity="0.01" width="24" height="24" fill="white"/>
<path fill-rule="evenodd" clip-rule="evenodd" d="M11.1094 5.22802C11.3928 5.53132 11.3918 6.02192 11.1072 6.32392L6.48794 11.2249L19.2727 11.2249L19.3714 11.232C19.7264 11.2833 20 11.6076 20 11.9999C20 12.4279 19.6744 12.7749 19.2727 12.7749L6.48946 12.7749L11.1072 17.6757L11.1778 17.7625C11.3896 18.0654 11.367 18.496 11.1093 18.7717C10.8259 19.075 10.3654 19.076 10.0808 18.774L4.23106 12.5663C4.09698 12.4328 4.01035 12.2459 4.00103 12.0374C3.99134 11.826 4.06243 11.6113 4.21428 11.4501L10.0809 5.22562L10.1626 5.15082C10.4478 4.92632 10.8517 4.95222 11.1094 5.22802Z" fill="#181818"/>
</svg>
