<svg width="82" height="82" viewBox="0 0 82 82" fill="none" xmlns="http://www.w3.org/2000/svg">
<g clip-path="url(#clip0_35068_715)" filter="url(#filter0_d_35068_715)">
<rect x="25" y="17" width="32" height="32" rx="16" fill="white"/>
<rect opacity="0.01" x="29" y="21" width="24" height="24" fill="white"/>
<path fill-rule="evenodd" clip-rule="evenodd" d="M40.9704 22.75C39.369 22.75 38.0384 22.8071 36.9589 23.028C35.8659 23.2517 34.9651 23.6561 34.2883 24.3975C33.6195 25.1302 33.2474 26.1074 33.0341 27.3191C32.8212 28.5287 32.7544 30.0474 32.7544 31.929C32.7544 32.6551 32.7531 33.3368 32.752 33.9764L32.752 33.9766C32.7465 37.0013 32.7428 39.0807 32.8791 40.4369C32.9605 41.2461 33.1008 41.9329 33.4093 42.4262C33.5753 42.6915 33.7956 42.9113 34.0817 43.0577C34.3627 43.2015 34.6594 43.25 34.9434 43.25C35.5921 43.25 36.2212 42.8931 36.729 42.5403C37.2242 42.1962 37.7455 41.7508 38.2385 41.3295L38.24 41.3282L38.3568 41.2284C38.9017 40.7633 39.4135 40.3339 39.8938 40.0186C40.392 39.6915 40.7422 39.566 40.9704 39.566C41.1985 39.566 41.5487 39.6915 42.0469 40.0186C42.5272 40.3339 43.039 40.7633 43.584 41.2284L43.7007 41.3282L43.7028 41.33C44.1957 41.7512 44.7167 42.1964 45.2117 42.5403C45.7195 42.8931 46.3486 43.25 46.9974 43.25C47.2813 43.25 47.578 43.2015 47.859 43.0577C48.1451 42.9113 48.3655 42.6915 48.5314 42.4262C48.8399 41.9329 48.9802 41.2461 49.0616 40.4369C49.1979 39.0816 49.1942 37.0039 49.1888 33.9823L49.1888 33.9766C49.1876 33.337 49.1864 32.6552 49.1864 31.929C49.1864 30.0474 49.1195 28.5287 48.9066 27.3191C48.6933 26.1074 48.3212 25.1302 47.6524 24.3975C46.9756 23.6561 46.0748 23.2517 44.9818 23.028C43.9024 22.8071 42.5717 22.75 40.9704 22.75ZM34.2544 31.929C34.2544 30.0621 34.3224 28.6529 34.5114 27.5792C34.7 26.5076 34.9968 25.8462 35.3962 25.4088C35.7875 24.98 36.354 24.6829 37.2597 24.4975C38.1789 24.3094 39.3782 24.25 40.9704 24.25C42.5625 24.25 43.7619 24.3094 44.6811 24.4975C45.5867 24.6829 46.1532 24.98 46.5446 25.4088C46.9439 25.8462 47.2407 26.5076 47.4293 27.5792C47.6183 28.6529 47.6864 30.0621 47.6864 31.929C47.6864 32.6729 47.6875 33.3657 47.6886 34.0109C47.6938 37.0367 47.6971 39.014 47.5691 40.2868C47.4903 41.0713 47.3706 41.4535 47.2596 41.6309C47.2158 41.7009 47.1866 41.7168 47.1758 41.7223C47.1599 41.7305 47.1124 41.75 46.9974 41.75C46.8486 41.75 46.554 41.6464 46.0676 41.3085C45.6367 41.009 45.1705 40.6109 44.6587 40.1737L44.658 40.1731L44.5578 40.0876C44.0237 39.6317 43.442 39.1401 42.8702 38.7647C42.3162 38.401 41.6557 38.066 40.9704 38.066C40.285 38.066 39.6245 38.401 39.0706 38.7647C38.4987 39.1401 37.917 39.6317 37.3829 40.0876L37.2827 40.1732L37.2806 40.175C36.7694 40.6116 36.3037 41.0093 35.8731 41.3085C35.3868 41.6464 35.0921 41.75 34.9434 41.75C34.8284 41.75 34.7808 41.7305 34.7649 41.7223C34.7541 41.7168 34.7249 41.7009 34.6811 41.6309C34.5702 41.4535 34.4505 41.0713 34.3716 40.2868C34.2436 39.0141 34.247 37.0369 34.2521 34.0115L34.2521 34.011C34.2532 33.3658 34.2544 32.6729 34.2544 31.929ZM37.5426 29.4677C37.1284 29.4677 36.7926 29.8035 36.7926 30.2177C36.7926 30.6319 37.1284 30.9677 37.5426 30.9677H44.3976C44.8118 30.9677 45.1476 30.6319 45.1476 30.2177C45.1476 29.8035 44.8118 29.4677 44.3976 29.4677H37.5426Z" fill="#C1C1C1"/>
</g>
<defs>
<filter id="filter0_d_35068_715" x="0" y="0" width="82" height="82" filterUnits="userSpaceOnUse" color-interpolation-filters="sRGB">
<feFlood flood-opacity="0" result="BackgroundImageFix"/>
<feColorMatrix in="SourceAlpha" type="matrix" values="0 0 0 0 0 0 0 0 0 0 0 0 0 0 0 0 0 0 127 0" result="hardAlpha"/>
<feOffset dy="8"/>
<feGaussianBlur stdDeviation="12.5"/>
<feColorMatrix type="matrix" values="0 0 0 0 0.12549 0 0 0 0 0.12549 0 0 0 0 0.12549 0 0 0 0.15 0"/>
<feBlend mode="normal" in2="BackgroundImageFix" result="effect1_dropShadow_35068_715"/>
<feBlend mode="normal" in="SourceGraphic" in2="effect1_dropShadow_35068_715" result="shape"/>
</filter>
<clipPath id="clip0_35068_715">
<rect width="32" height="32" fill="white" transform="translate(25 17)"/>
</clipPath>
</defs>
</svg>
