<svg width="32" height="32" viewBox="0 0 32 32" fill="none" xmlns="http://www.w3.org/2000/svg">
<mask id="mask0_35072_662" style="mask-type:luminance" maskUnits="userSpaceOnUse" x="0" y="0" width="32" height="32">
<path d="M32 0H0V32H32V0Z" fill="white"/>
</mask>
<g mask="url(#mask0_35072_662)">
<g filter="url(#filter0_d_35072_662)">
<path d="M32 16C32 7.16344 24.8366 0 16 0C7.16344 0 0 7.16344 0 16C0 24.8366 7.16344 32 16 32C24.8366 32 32 24.8366 32 16Z" fill="white"/>
<path opacity="0.01" d="M28 4H4V28H28V4Z" fill="white"/>
<path fill-rule="evenodd" clip-rule="evenodd" d="M15.9704 5.75C14.369 5.75 13.0384 5.8071 11.9589 6.028C10.8659 6.2517 9.96509 6.6561 9.28829 7.3975C8.61949 8.1302 8.24739 9.1074 8.03409 10.3191C7.82119 11.5287 7.75439 13.0474 7.75439 14.929C7.75439 15.6551 7.75309 16.3368 7.75199 16.9764C7.74649 20.0011 7.74279 22.0807 7.87909 23.4369C7.96049 24.2461 8.1008 24.9329 8.4093 25.4262C8.5753 25.6915 8.79559 25.9113 9.08169 26.0577C9.36269 26.2015 9.6594 26.25 9.9434 26.25C10.5921 26.25 11.2212 25.8931 11.729 25.5403C12.2242 25.1962 12.7455 24.7508 13.2385 24.3295L13.24 24.3282L13.3568 24.2284C13.9017 23.7633 14.4135 23.3339 14.8938 23.0186C15.392 22.6915 15.7422 22.566 15.9704 22.566C16.1985 22.566 16.5487 22.6915 17.0469 23.0186C17.5272 23.3339 18.039 23.7633 18.584 24.2284L18.7007 24.3282L18.7028 24.33C19.1957 24.7512 19.7167 25.1964 20.2117 25.5403C20.7195 25.8931 21.3486 26.25 21.9974 26.25C22.2813 26.25 22.578 26.2015 22.859 26.0577C23.1451 25.9113 23.3655 25.6915 23.5314 25.4262C23.8399 24.9329 23.9802 24.2461 24.0616 23.4369C24.1979 22.0816 24.1942 20.0039 24.1888 16.9823V16.9766C24.1876 16.337 24.1864 15.6552 24.1864 14.929C24.1864 13.0474 24.1195 11.5287 23.9066 10.3191C23.6933 9.1074 23.3212 8.1302 22.6524 7.3975C21.9756 6.6561 21.0748 6.2517 19.9818 6.028C18.9024 5.8071 17.5717 5.75 15.9704 5.75ZM9.25439 14.929C9.25439 13.0621 9.32239 11.6529 9.51139 10.5792C9.69999 9.5076 9.99679 8.8462 10.3962 8.4088C10.7875 7.98 11.354 7.6829 12.2597 7.4975C13.1789 7.3094 14.3782 7.25 15.9704 7.25C17.5625 7.25 18.7619 7.3094 19.6811 7.4975C20.5867 7.6829 21.1532 7.98 21.5446 8.4088C21.9439 8.8462 22.2407 9.5076 22.4293 10.5792C22.6183 11.6529 22.6864 13.0621 22.6864 14.929C22.6864 15.6729 22.6875 16.3657 22.6886 17.0109C22.6938 20.0367 22.6971 22.014 22.5691 23.2868C22.4903 24.0713 22.3706 24.4535 22.2596 24.6309C22.2158 24.7009 22.1866 24.7168 22.1758 24.7223C22.1599 24.7305 22.1124 24.75 21.9974 24.75C21.8486 24.75 21.554 24.6464 21.0676 24.3085C20.6367 24.009 20.1705 23.6109 19.6587 23.1737L19.5578 23.0876C19.0237 22.6317 18.442 22.1401 17.8702 21.7647C17.3162 21.401 16.6557 21.066 15.9704 21.066C15.285 21.066 14.6245 21.401 14.0706 21.7647C13.4987 22.1401 12.917 22.6317 12.3829 23.0876L12.2827 23.1732L12.2806 23.175C11.7694 23.6116 11.3037 24.0093 10.8731 24.3085C10.3868 24.6464 10.0921 24.75 9.9434 24.75C9.8284 24.75 9.78079 24.7305 9.76489 24.7223C9.75409 24.7168 9.72489 24.7009 9.68109 24.6309C9.57019 24.4535 9.4505 24.0713 9.3716 23.2868C9.2436 22.0141 9.247 20.0369 9.2521 17.0115C9.2532 16.3663 9.25439 15.6729 9.25439 14.929ZM12.5426 12.4677C12.1284 12.4677 11.7926 12.8035 11.7926 13.2177C11.7926 13.6319 12.1284 13.9677 12.5426 13.9677H19.3976C19.8118 13.9677 20.1476 13.6319 20.1476 13.2177C20.1476 12.8035 19.8118 12.4677 19.3976 12.4677H12.5426Z" fill="#C1C1C1"/>
</g>
</g>
<defs>
<filter id="filter0_d_35072_662" x="-25" y="-17" width="82" height="82" filterUnits="userSpaceOnUse" color-interpolation-filters="sRGB">
<feFlood flood-opacity="0" result="BackgroundImageFix"/>
<feColorMatrix in="SourceAlpha" type="matrix" values="0 0 0 0 0 0 0 0 0 0 0 0 0 0 0 0 0 0 127 0" result="hardAlpha"/>
<feOffset dy="8"/>
<feGaussianBlur stdDeviation="12.5"/>
<feColorMatrix type="matrix" values="0 0 0 0 0.12549 0 0 0 0 0.12549 0 0 0 0 0.12549 0 0 0 0.15 0"/>
<feBlend mode="normal" in2="BackgroundImageFix" result="effect1_dropShadow_35072_662"/>
<feBlend mode="normal" in="SourceGraphic" in2="effect1_dropShadow_35072_662" result="shape"/>
</filter>
</defs>
</svg>
