<svg width="32" height="32" viewBox="0 0 32 32" fill="none" xmlns="http://www.w3.org/2000/svg">
<mask id="mask0_35071_789" style="mask-type:luminance" maskUnits="userSpaceOnUse" x="0" y="0" width="32" height="32">
<path d="M32 0H0V32H32V0Z" fill="white"/>
</mask>
<g mask="url(#mask0_35071_789)">
<g filter="url(#filter0_d_35071_789)">
<path d="M32 16C32 7.16344 24.8366 0 16 0C7.16344 0 0 7.16344 0 16C0 24.8366 7.16344 32 16 32C24.8366 32 32 24.8366 32 16Z" fill="white"/>
<path opacity="0.01" d="M28 4H4V28H28V4Z" fill="white"/>
<mask id="mask1_35071_789" style="mask-type:luminance" maskUnits="userSpaceOnUse" x="7" y="5" width="18" height="22">
<path d="M24.1906 5.75H7.74976V26.25H24.1906V5.75Z" fill="white"/>
</mask>
<g mask="url(#mask1_35071_789)">
<path d="M15.9702 6.5C9.58324 6.5 8.50424 7.432 8.50424 14.929C8.50424 23.322 8.34724 25.5 9.94324 25.5C11.5382 25.5 14.1432 21.816 15.9702 21.816C17.7972 21.816 20.4022 25.5 21.9972 25.5C23.5932 25.5 23.4362 23.322 23.4362 14.929C23.4362 7.432 22.3572 6.5 15.9702 6.5Z" fill="#F9D8D8"/>
<path fill-rule="evenodd" clip-rule="evenodd" d="M15.9701 5.75C14.3688 5.75 13.0381 5.8071 11.9587 6.028C10.8657 6.2517 9.96491 6.6561 9.28811 7.3975C8.61931 8.1302 8.24721 9.1074 8.03391 10.3191C7.82101 11.5287 7.75411 13.0474 7.75411 14.929C7.75411 15.6551 7.75291 16.3368 7.75171 16.9764C7.74631 20.0011 7.74251 22.0807 7.87891 23.4369C7.96031 24.2461 8.10061 24.9329 8.40911 25.4262C8.57501 25.6915 8.79541 25.9113 9.08151 26.0577C9.36251 26.2015 9.65911 26.25 9.94311 26.25C10.5919 26.25 11.221 25.8931 11.7288 25.5403C12.224 25.1962 12.7452 24.7508 13.2383 24.3295L13.2397 24.3282L13.3565 24.2284C13.9015 23.7633 14.4133 23.3339 14.8936 23.0186C15.3918 22.6915 15.742 22.566 15.9701 22.566C16.1983 22.566 16.5485 22.6915 17.0467 23.0186C17.527 23.3339 18.0388 23.7633 18.5838 24.2284L18.7005 24.3282L18.7026 24.33C19.1955 24.7512 19.7165 25.1964 20.2115 25.5403C20.7193 25.8931 21.3484 26.25 21.9972 26.25C22.2811 26.25 22.5778 26.2015 22.8588 26.0577C23.1449 25.9113 23.3653 25.6915 23.5312 25.4262C23.8397 24.9329 23.98 24.2461 24.0614 23.4369C24.1977 22.0816 24.194 20.0039 24.1886 16.9823V16.9766C24.1874 16.337 24.1862 15.6552 24.1862 14.929C24.1862 13.0474 24.1193 11.5287 23.9064 10.3191C23.6931 9.1074 23.321 8.1302 22.6522 7.3975C21.9754 6.6561 21.0746 6.2517 19.9816 6.028C18.9022 5.8071 17.5715 5.75 15.9701 5.75ZM9.25411 14.929C9.25411 13.0621 9.32221 11.6529 9.51121 10.5792C9.69981 9.5076 9.99661 8.8462 10.3959 8.4088C10.7873 7.98 11.3538 7.6829 12.2594 7.4975C13.1786 7.3094 14.378 7.25 15.9701 7.25C17.5623 7.25 18.7617 7.3094 19.6809 7.4975C20.5865 7.6829 21.153 7.98 21.5444 8.4088C21.9437 8.8462 22.2405 9.5076 22.4291 10.5792C22.6181 11.6529 22.6862 13.0621 22.6862 14.929C22.6862 15.6729 22.6873 16.3657 22.6884 17.0109C22.6936 20.0367 22.6969 22.014 22.5689 23.2868C22.4901 24.0713 22.3704 24.4535 22.2594 24.6309C22.2156 24.7009 22.1864 24.7168 22.1756 24.7223C22.1597 24.7305 22.1122 24.75 21.9972 24.75C21.8484 24.75 21.5538 24.6464 21.0674 24.3085C20.6365 24.009 20.1703 23.6109 19.6585 23.1737L19.5576 23.0876C19.0235 22.6317 18.4418 22.1401 17.87 21.7647C17.316 21.401 16.6555 21.066 15.9701 21.066C15.2848 21.066 14.6242 21.401 14.0703 21.7647C13.4985 22.1401 12.9168 22.6317 12.3827 23.0876L12.2825 23.1732L12.2804 23.175C11.7691 23.6116 11.3034 24.0093 10.8729 24.3085C10.3865 24.6464 10.0919 24.75 9.94311 24.75C9.82811 24.75 9.78061 24.7305 9.76471 24.7223C9.75391 24.7168 9.72471 24.7009 9.68081 24.6309C9.56991 24.4535 9.45021 24.0713 9.37141 23.2868C9.24341 22.0141 9.24671 20.0369 9.25191 17.0115C9.25301 16.3663 9.25411 15.6729 9.25411 14.929ZM12.5424 12.4677C12.1281 12.4677 11.7924 12.8035 11.7924 13.2177C11.7924 13.6319 12.1281 13.9677 12.5424 13.9677H19.3974C19.8116 13.9677 20.1474 13.6319 20.1474 13.2177C20.1474 12.8035 19.8116 12.4677 19.3974 12.4677H12.5424Z" fill="#E23E3E"/>
</g>
</g>
</g>
<defs>
<filter id="filter0_d_35071_789" x="-25" y="-17" width="82" height="82" filterUnits="userSpaceOnUse" color-interpolation-filters="sRGB">
<feFlood flood-opacity="0" result="BackgroundImageFix"/>
<feColorMatrix in="SourceAlpha" type="matrix" values="0 0 0 0 0 0 0 0 0 0 0 0 0 0 0 0 0 0 127 0" result="hardAlpha"/>
<feOffset dy="8"/>
<feGaussianBlur stdDeviation="12.5"/>
<feColorMatrix type="matrix" values="0 0 0 0 0.12549 0 0 0 0 0.12549 0 0 0 0 0.12549 0 0 0 0.15 0"/>
<feBlend mode="normal" in2="BackgroundImageFix" result="effect1_dropShadow_35071_789"/>
<feBlend mode="normal" in="SourceGraphic" in2="effect1_dropShadow_35071_789" result="shape"/>
</filter>
</defs>
</svg>
