<svg width="82" height="82" viewBox="0 0 82 82" fill="none" xmlns="http://www.w3.org/2000/svg">
<g clip-path="url(#clip0_35068_716)" filter="url(#filter0_d_35068_716)">
<rect x="25" y="17" width="32" height="32" rx="16" fill="white"/>
<rect opacity="0.01" x="29" y="21" width="24" height="24" fill="white"/>
<g clip-path="url(#clip1_35068_716)">
<path d="M40.9702 23.5C34.5832 23.5 33.5042 24.432 33.5042 31.929C33.5042 40.322 33.3472 42.5 34.9432 42.5C36.5382 42.5 39.1432 38.816 40.9702 38.816C42.7972 38.816 45.4022 42.5 46.9972 42.5C48.5932 42.5 48.4362 40.322 48.4362 31.929C48.4362 24.432 47.3572 23.5 40.9702 23.5V23.5Z" fill="#F9D8D8"/>
<path fill-rule="evenodd" clip-rule="evenodd" d="M40.9701 22.75C39.3688 22.75 38.0381 22.8071 36.9587 23.028C35.8657 23.2517 34.9649 23.6561 34.2881 24.3975C33.6193 25.1302 33.2472 26.1074 33.0339 27.3191C32.821 28.5287 32.7541 30.0474 32.7541 31.929C32.7541 32.6551 32.7529 33.3368 32.7517 33.9764L32.7517 33.9766C32.7463 37.0013 32.7425 39.0807 32.8789 40.4369C32.9603 41.2461 33.1006 41.9329 33.4091 42.4262C33.575 42.6915 33.7954 42.9113 34.0815 43.0577C34.3625 43.2015 34.6591 43.25 34.9431 43.25C35.5919 43.25 36.221 42.8931 36.7288 42.5403C37.224 42.1962 37.7452 41.7508 38.2383 41.3295L38.2397 41.3282L38.3565 41.2284C38.9015 40.7633 39.4133 40.3339 39.8936 40.0186C40.3918 39.6915 40.742 39.566 40.9701 39.566C41.1983 39.566 41.5485 39.6915 42.0467 40.0186C42.527 40.3339 43.0388 40.7633 43.5838 41.2284L43.7005 41.3282L43.7026 41.33C44.1955 41.7512 44.7165 42.1964 45.2115 42.5403C45.7193 42.8931 46.3484 43.25 46.9972 43.25C47.2811 43.25 47.5778 43.2015 47.8588 43.0577C48.1449 42.9113 48.3653 42.6915 48.5312 42.4262C48.8397 41.9329 48.98 41.2461 49.0614 40.4369C49.1977 39.0816 49.194 37.0039 49.1886 33.9823L49.1886 33.9766C49.1874 33.337 49.1862 32.6552 49.1862 31.929C49.1862 30.0474 49.1193 28.5287 48.9064 27.3191C48.6931 26.1074 48.321 25.1302 47.6522 24.3975C46.9754 23.6561 46.0746 23.2517 44.9816 23.028C43.9022 22.8071 42.5715 22.75 40.9701 22.75ZM34.2541 31.929C34.2541 30.0621 34.3222 28.6529 34.5112 27.5792C34.6998 26.5076 34.9966 25.8462 35.3959 25.4088C35.7873 24.98 36.3538 24.6829 37.2594 24.4975C38.1786 24.3094 39.378 24.25 40.9701 24.25C42.5623 24.25 43.7617 24.3094 44.6809 24.4975C45.5865 24.6829 46.153 24.98 46.5444 25.4088C46.9437 25.8462 47.2405 26.5076 47.4291 27.5792C47.6181 28.6529 47.6862 30.0621 47.6862 31.929C47.6862 32.6729 47.6873 33.3657 47.6884 34.0109C47.6936 37.0367 47.6969 39.014 47.5689 40.2868C47.4901 41.0713 47.3704 41.4535 47.2594 41.6309C47.2156 41.7009 47.1864 41.7168 47.1756 41.7223C47.1597 41.7305 47.1122 41.75 46.9972 41.75C46.8484 41.75 46.5538 41.6464 46.0674 41.3085C45.6365 41.009 45.1703 40.6109 44.6585 40.1737L44.6578 40.1731L44.5576 40.0876C44.0235 39.6317 43.4418 39.1401 42.87 38.7647C42.316 38.401 41.6555 38.066 40.9701 38.066C40.2848 38.066 39.6242 38.401 39.0703 38.7647C38.4985 39.1401 37.9168 39.6317 37.3827 40.0876L37.2825 40.1732L37.2804 40.175C36.7691 40.6116 36.3034 41.0093 35.8729 41.3085C35.3865 41.6464 35.0919 41.75 34.9431 41.75C34.8281 41.75 34.7806 41.7305 34.7647 41.7223C34.7539 41.7168 34.7247 41.7009 34.6808 41.6309C34.5699 41.4535 34.4502 41.0713 34.3714 40.2868C34.2434 39.0141 34.2467 37.0369 34.2519 34.0115L34.2519 34.011C34.253 33.3658 34.2541 32.6729 34.2541 31.929ZM37.5424 29.4677C37.1281 29.4677 36.7924 29.8035 36.7924 30.2177C36.7924 30.6319 37.1281 30.9677 37.5424 30.9677H44.3974C44.8116 30.9677 45.1474 30.6319 45.1474 30.2177C45.1474 29.8035 44.8116 29.4677 44.3974 29.4677H37.5424Z" fill="#E23E3E"/>
</g>
</g>
<defs>
<filter id="filter0_d_35068_716" x="0" y="0" width="82" height="82" filterUnits="userSpaceOnUse" color-interpolation-filters="sRGB">
<feFlood flood-opacity="0" result="BackgroundImageFix"/>
<feColorMatrix in="SourceAlpha" type="matrix" values="0 0 0 0 0 0 0 0 0 0 0 0 0 0 0 0 0 0 127 0" result="hardAlpha"/>
<feOffset dy="8"/>
<feGaussianBlur stdDeviation="12.5"/>
<feColorMatrix type="matrix" values="0 0 0 0 0.12549 0 0 0 0 0.12549 0 0 0 0 0.12549 0 0 0 0.15 0"/>
<feBlend mode="normal" in2="BackgroundImageFix" result="effect1_dropShadow_35068_716"/>
<feBlend mode="normal" in="SourceGraphic" in2="effect1_dropShadow_35068_716" result="shape"/>
</filter>
<clipPath id="clip0_35068_716">
<rect width="32" height="32" fill="white" transform="translate(25 17)"/>
</clipPath>
<clipPath id="clip1_35068_716">
<rect width="16.4408" height="20.5" fill="white" transform="translate(32.7498 22.75)"/>
</clipPath>
</defs>
</svg>
