<svg width="24" height="24" viewBox="0 0 24 24" fill="none" xmlns="http://www.w3.org/2000/svg">
<rect opacity="0.01" width="24" height="24" fill="white"/>
<path fill-rule="evenodd" clip-rule="evenodd" d="M11.9961 1.76416C9.52139 1.76416 7.72157 2.89651 6.56012 4.3939C5.41698 5.86768 4.88513 7.69875 4.88513 9.18368C4.88513 9.60993 4.89808 9.92637 4.90791 10.1665L4.90799 10.1685C4.90998 10.2171 4.91184 10.2626 4.91343 10.3052C4.9231 10.5635 4.92114 10.6876 4.90128 10.8105C4.85611 11.0901 4.71309 11.4345 4.14168 12.6938C4.13598 12.7064 4.13063 12.7191 4.12564 12.7319C3.71253 13.7943 3.80463 14.7717 4.29552 15.6C4.76394 16.3904 5.55144 16.9724 6.40271 17.3971C8.10503 18.2463 10.3556 18.6118 11.9961 18.6118C13.6361 18.6118 15.8864 18.2463 17.5887 17.3971C18.44 16.9724 19.2275 16.3905 19.6961 15.6001C20.187 14.7719 20.2794 13.7945 19.8666 12.7321C19.8616 12.7192 19.8562 12.7064 19.8505 12.6938C19.2791 11.4345 19.1361 11.0901 19.0909 10.8105C19.071 10.6876 19.0691 10.5635 19.0787 10.3052C19.0803 10.262 19.0822 10.2159 19.0843 10.1665C19.0941 9.92636 19.107 9.60992 19.107 9.18368C19.107 7.69867 18.5749 5.86761 17.4317 4.39386C16.2701 2.89654 14.4703 1.76416 11.9961 1.76416ZM6.38513 9.18368C6.38513 8.01433 6.81661 6.51064 7.74537 5.31323C8.65583 4.13943 10.0365 3.26416 11.9961 3.26416C13.9552 3.26416 15.3358 4.1394 16.2465 5.31327C17.1754 6.51071 17.607 8.01441 17.607 9.18368C17.607 9.57679 17.5955 9.86077 17.5857 10.0998C17.5836 10.1515 17.5816 10.201 17.5798 10.2491C17.5698 10.515 17.5646 10.7681 17.6101 11.0497C17.6946 11.5728 17.9515 12.139 18.4655 13.2716L18.4755 13.2937C18.7241 13.9463 18.6442 14.433 18.4057 14.8352C18.1426 15.2791 17.6384 15.6961 16.9191 16.0549C15.4805 16.7726 13.4751 17.1118 11.9961 17.1118C10.5165 17.1118 8.51094 16.7725 7.07231 16.0549C6.3531 15.6961 5.84894 15.2791 5.58593 14.8353C5.3476 14.4331 5.26777 13.9465 5.51665 13.2938L5.52667 13.2717L5.52679 13.2714C6.04069 12.1389 6.29758 11.5727 6.38207 11.0497C6.42757 10.7681 6.42233 10.515 6.41239 10.2491C6.41074 10.205 6.4089 10.1597 6.40699 10.1127L6.40646 10.0998C6.39671 9.86076 6.38513 9.57678 6.38513 9.18368ZM10.2453 20.0125C9.96933 19.7036 9.49521 19.6769 9.18629 19.9528C8.87737 20.2287 8.85063 20.7029 9.12657 21.0118C10.7343 22.8117 13.2752 22.7879 14.8647 21.0124C15.141 20.7038 15.1148 20.2297 14.8062 19.9534C14.4976 19.6771 14.0234 19.7033 13.7471 20.0119C12.748 21.1279 11.2508 21.1383 10.2453 20.0125Z" fill="#C1C1C1"/>
</svg>
