<svg width="24" height="24" viewBox="0 0 24 24" fill="none" xmlns="http://www.w3.org/2000/svg">
<rect opacity="0.01" width="24" height="24" fill="white"/>
<path fill-rule="evenodd" clip-rule="evenodd" d="M11.8373 1.65002C9.00073 1.65002 6.70066 3.94966 6.69998 6.78602L6.69998 6.78729H7.44998L6.69998 6.78475L6.69998 6.78602C6.69108 9.61411 8.97538 11.914 11.8038 11.9236H11.8064H11.8373C14.6742 11.9236 16.9737 9.62423 16.9737 6.78729C16.9737 3.95055 14.6744 1.65002 11.8373 1.65002ZM8.19998 6.78729C8.19998 4.77878 9.82873 3.15002 11.8373 3.15002C13.8456 3.15002 15.4736 4.77858 15.4736 6.78729C15.4736 8.79581 13.8449 10.4237 11.8364 10.4237H11.8076C9.80792 10.4162 8.1932 8.78981 8.19998 6.78983V6.78729ZM5.75 18.7867C5.75 17.9894 6.30533 17.0845 7.44188 16.3385C8.55835 15.6057 10.1245 15.1119 11.8446 15.1119C13.5556 15.1119 15.1226 15.6011 16.2421 16.3298C17.3822 17.0719 17.9391 17.9717 17.9391 18.7661C17.9391 19.1512 17.8152 19.4377 17.5916 19.6789C17.3521 19.9373 16.9676 20.1737 16.411 20.3685C15.2884 20.7614 13.6826 20.9119 11.8446 20.9119C10.0152 20.9119 8.40853 20.7667 7.28249 20.3781C6.72404 20.1854 6.3382 19.9508 6.09786 19.694C5.87403 19.4549 5.75 19.1706 5.75 18.7867ZM11.8446 13.6119C9.85282 13.6119 7.99665 14.1801 6.6188 15.0845C5.26103 15.9757 4.25 17.2832 4.25 18.7867C4.25 19.5531 4.52006 20.2034 5.00274 20.7191C5.4689 21.2171 6.10198 21.5575 6.79319 21.7961C8.16647 22.2699 9.98208 22.4119 11.8446 22.4119C13.7184 22.4119 15.5348 22.2644 16.9065 21.7843C17.597 21.5427 18.2278 21.1989 18.6916 20.6987C19.1714 20.1813 19.4391 19.5309 19.4391 18.7661C19.4391 17.2597 18.4196 15.9574 17.0604 15.0726C15.6806 14.1745 13.8253 13.6119 11.8446 13.6119Z" fill="#C1C1C1"/>
</svg>
