<svg width="24" height="24" viewBox="0 0 24 24" fill="none" xmlns="http://www.w3.org/2000/svg">
<rect opacity="0.01" width="24" height="24" fill="white"/>
<path fill-rule="evenodd" clip-rule="evenodd" d="M11.2 5.01571C12.4566 3.34144 14.8326 3.00253 16.5079 4.25893C18.1824 5.51577 18.5201 7.89312 17.2637 9.56714L16.0377 11.2005C16.0181 11.2392 15.9949 11.2767 15.9679 11.3126C15.941 11.3485 15.9114 11.3813 15.8797 11.411L14.5308 13.2082C13.0572 15.1714 11.3691 17.4202 10.5116 18.5622C9.4806 19.9364 8.0027 20.3745 6.86224 20.4848C6.288 20.5403 5.77729 20.5158 5.41029 20.4778C5.22593 20.4587 5.07549 20.436 4.96862 20.4175C4.91512 20.4082 4.87236 20.4 4.84152 20.3938L4.8043 20.386L4.79263 20.3834L4.78858 20.3825L4.787 20.3821C4.7867 20.3821 4.78573 20.3818 4.95382 19.6509L4.3027 20.0231L4.30154 20.0211L4.29947 20.0174L4.29359 20.0069L4.27532 19.9735C4.26039 19.9457 4.24016 19.9072 4.21589 19.8587C4.1674 19.7619 4.10247 19.6247 4.03146 19.454C3.89012 19.1141 3.72108 18.6328 3.6122 18.0668C3.39544 16.9402 3.40581 15.3999 4.44788 14.0108L11.2 5.01571ZM4.3027 20.0231C4.40664 20.2046 4.58193 20.335 4.78573 20.3818L4.95382 19.6509C4.30301 20.0237 4.30286 20.0234 4.3027 20.0231ZM15.2093 9.80543L16.064 8.66671C16.8236 7.65473 16.6191 6.21792 15.6076 5.45877C14.5949 4.69936 13.159 4.90449 12.3997 5.91614L11.5449 7.05488L15.2093 9.80543ZM10.6444 8.25451L14.3088 11.0051L13.3311 12.3077C11.8575 14.2709 10.1693 16.5199 9.31185 17.6619C8.62882 18.5724 7.62785 18.9038 6.71789 18.9918C6.26688 19.0354 5.85946 19.0162 5.56465 18.9857C5.52681 18.9818 5.49098 18.9777 5.45731 18.9736C5.44417 18.9436 5.4305 18.9117 5.41645 18.8779C5.3037 18.6068 5.17017 18.2252 5.08519 17.7835C4.91419 16.8946 4.95083 15.84 5.64775 14.911L10.6444 8.25451ZM12.5852 19.5078C12.5852 19.0936 12.921 18.7578 13.3352 18.7578H19.7122C20.1264 18.7578 20.4622 19.0936 20.4622 19.5078C20.4622 19.922 20.1264 20.2578 19.7122 20.2578H13.3352C12.921 20.2578 12.5852 19.922 12.5852 19.5078Z" fill="#181818"/>
</svg>
