<svg width="24" height="24" viewBox="0 0 24 24" fill="none" xmlns="http://www.w3.org/2000/svg">
<rect opacity="0.01" width="24" height="24" fill="white"/>
<path fill-rule="evenodd" clip-rule="evenodd" d="M4.08061 11.4315C4.08061 7.35149 7.46173 4.044 11.6326 4.044C15.8034 4.044 19.1845 7.35149 19.1845 11.4315C19.1845 15.5115 15.8034 18.8189 11.6326 18.8189C7.46173 18.8189 4.08061 15.5115 4.08061 11.4315ZM11.6326 2.40002C6.53357 2.40002 2.40002 6.44354 2.40002 11.4315C2.40002 16.4194 6.53357 20.4629 11.6326 20.4629C13.7683 20.4629 15.7347 19.7535 17.2989 18.5624L20.1663 21.36C20.4949 21.6806 21.0269 21.6799 21.3547 21.3585C21.6824 21.0371 21.6817 20.5166 21.3531 20.196L18.5269 17.4385C19.9813 15.8424 20.8651 13.7379 20.8651 11.4315C20.8651 6.44354 16.7315 2.40002 11.6326 2.40002Z" fill="#181818"/>
</svg>
