<svg width="24" height="24" viewBox="0 0 24 24" fill="none" xmlns="http://www.w3.org/2000/svg">
<rect opacity="0.01" width="24" height="24" fill="white"/>
<path fill-rule="evenodd" clip-rule="evenodd" d="M12.8906 5.22802C12.6072 5.53132 12.6082 6.02192 12.8928 6.32392L17.5121 11.2249H4.72726L4.62858 11.232C4.2736 11.2833 4 11.6076 4 11.9999C4 12.4279 4.32561 12.7749 4.72726 12.7749H17.5105L12.8928 17.6757L12.8222 17.7625C12.6104 18.0654 12.633 18.496 12.8907 18.7717C13.1741 19.075 13.6346 19.076 13.9192 18.774L19.7689 12.5663C19.903 12.4328 19.9897 12.2459 19.999 12.0374C20.0087 11.826 19.9376 11.6113 19.7857 11.4501L13.9191 5.22562L13.8374 5.15082C13.5522 4.92632 13.1483 4.95222 12.8906 5.22802Z" fill="#181818"/>
</svg>
